<svg viewBox="0 0 1025 369" xmlns="http://www.w3.org/2000/svg" xml:space="preserve" style="fill-rule:evenodd;clip-rule:evenodd;stroke-linejoin:round;stroke-miterlimit:2"><path d="M.667.027C.667.015.664 0 .66-.021a3 3 0 0 0-.23-.656C.408-.719.389-.74.372-.74c-.013 0-.024.008-.033.022a3.426 3.426 0 0 0-.175.495 2.1 2.1 0 0 1-.097.014C.042-.205.03-.192.03-.169c0 .03.011.045.035.045a.603.603 0 0 0 .078-.01.554.554 0 0 0-.014.099c0 .023.002.038.006.048.007.015.021.023.041.023.007 0 .015-.004.023-.011A.054.054 0 0 0 .215.002a.216.216 0 0 1-.003-.035c0-.029.004-.067.014-.113a.678.678 0 0 1 .322.02l.022.081a.04.04 0 0 0-.003.015c0 .014.006.032.018.055.013.025.026.038.038.038.029 0 .044-.012.044-.036ZM.52-.225a.83.83 0 0 0-.148-.018c-.033 0-.074.003-.123.009C.285-.37.326-.49.372-.595c.052.096.101.22.148.37Z" style="fill-rule:nonzero" transform="matrix(144 0 0 144 2.133 342.115)"/><path d="M.463-.233A.113.113 0 0 0 .43-.316a.108.108 0 0 0-.08-.035c-.059 0-.122.041-.188.121a4.67 4.67 0 0 1 .029-.315.047.047 0 0 0 .023-.026.535.535 0 0 0 .021-.12c0-.036-.015-.054-.043-.054-.02 0-.036.025-.049.075-.02.072-.036.165-.048.279a2.566 2.566 0 0 0-.012.227c0 .043.001.082.005.118a.053.053 0 0 0-.027.041C.068.027.09.043.127.043c.06 0 .13-.03.209-.089.084-.063.127-.125.127-.187Zm-.078.002c0 .043-.049.093-.146.15a.263.263 0 0 1-.072.032v-.026c0-.013.011-.036.034-.068a.39.39 0 0 1 .076-.082C.306-.25.329-.263.345-.263c.026 0 .04.011.04.032Z" style="fill-rule:nonzero" transform="matrix(144 0 0 144 102.645 342.115)"/><path d="M.368-.22a.18.18 0 0 0-.144-.178c-.008 0-.017.005-.029.013a.265.265 0 0 1-.033.017.184.184 0 0 0-.082.089.258.258 0 0 0-.029.122c0 .051.013.093.041.126a.135.135 0 0 0 .105.049c.048 0 .089-.022.122-.068a.29.29 0 0 0 .049-.17Zm-.079.015c0 .034-.01.065-.028.094-.02.03-.041.045-.065.045a.054.054 0 0 1-.048-.028.104.104 0 0 1-.019-.063c0-.032.007-.062.023-.09.018-.032.041-.049.069-.049.01.006.023.009.039.009.019.012.029.04.029.082Z" style="fill-rule:nonzero" transform="matrix(144 0 0 144 175.221 342.115)"/><path d="M.472-.332C.472-.36.46-.374.436-.374c-.012 0-.022.007-.032.021-.126.185-.212.277-.259.277-.008 0-.012-.004-.012-.012 0-.016.006-.053.019-.113A.741.741 0 0 0 .17-.316C.17-.358.156-.38.129-.38c-.01 0-.018.005-.025.015a.048.048 0 0 0-.011.041v.011c0 .016-.008.059-.022.13a.657.657 0 0 0-.02.121c0 .024.008.042.024.055a.09.09 0 0 0 .058.018c.053 0 .128-.056.226-.169a1.454 1.454 0 0 0-.012.124.041.041 0 0 0-.007.023.03.03 0 0 0 .015.027c.009.006.02.01.032.01A.038.038 0 0 0 .42.008a.065.065 0 0 0 .012-.039.236.236 0 0 0-.003-.024.189.189 0 0 1-.003-.03c0-.014.004-.047.013-.099a.778.778 0 0 1 .026-.117c.004-.014.007-.024.007-.031Z" style="fill-rule:nonzero" transform="matrix(144 0 0 144 235.701 342.115)"/><path d="M.394-.351C.394-.383.365-.4.307-.403L.233-.405c.014-.066.027-.119.039-.16l.023-.073C.292-.668.278-.683.252-.683c-.018 0-.03.011-.036.032-.018.06-.04.142-.066.248a.114.114 0 0 0-.047.007C.091-.39.085-.378.085-.36c0 .029.015.043.046.043l-.03.144a.81.81 0 0 0-.019.143c0 .054.016.082.049.082C.141.052.15.048.16.04.169.031.174.022.174.012c0-.016-.005-.027-.015-.035a.925.925 0 0 1 .02-.151l.033-.145.056.001.052.001a.05.05 0 0 0 .037.014c.009 0 .018-.005.026-.015a.057.057 0 0 0 .011-.033Z" style="fill-rule:nonzero" transform="matrix(144 0 0 144 308.133 342.115)"/><path d="M.808.077.795.042C.786.021.774.007.76.001A.564.564 0 0 1 .705-.18a4.405 4.405 0 0 1-.028-.206A1.251 1.251 0 0 0 .63-.622C.623-.643.61-.654.592-.654a.036.036 0 0 0-.034.02 1.628 1.628 0 0 0-.141.358A1.152 1.152 0 0 1 .26-.675C.254-.698.241-.71.221-.71c-.019 0-.032.008-.039.023a1.07 1.07 0 0 0-.044.109.054.054 0 0 0-.027-.009c-.027 0-.04.014-.04.04l.001.03.001.031c0 .036-.004.081-.01.137a1.855 1.855 0 0 0-.012.142c0 .038.003.073.011.103.011.04.027.06.047.06.024 0 .036-.02.038-.06A1.697 1.697 0 0 1 .21-.553a.87.87 0 0 0 .069.198.602.602 0 0 0 .108.173c.018.02.035.029.05.029.02 0 .034-.013.04-.041.021-.092.055-.197.101-.313.019.164.031.262.037.295.02.12.048.211.082.271.022.04.045.061.068.061a.045.045 0 0 0 .03-.013.05.05 0 0 0 .013-.03Z" style="fill-rule:nonzero" transform="matrix(144 0 0 144 414.117 342.115)"/><path d="M.448-.018c0-.01-.004-.02-.012-.03a.04.04 0 0 0-.028-.013L.37-.057a.365.365 0 0 1-.038.003c-.03 0-.056-.014-.08-.043.1-.054.15-.118.15-.192a.111.111 0 0 0-.036-.079C.342-.392.318-.404.293-.404c-.043 0-.078.025-.106.074a.268.268 0 0 0-.032.176H.132a.07.07 0 0 1-.041-.015C.077-.179.067-.184.061-.184c-.026 0-.039.014-.039.042 0 .022.016.04.05.054a.193.193 0 0 0 .077.016h.03a.177.177 0 0 0 .168.103c.067 0 .101-.017.101-.049ZM.323-.285c0 .033-.03.069-.09.108v-.018c0-.027.004-.053.014-.078.01-.03.024-.045.042-.045.008 0 .016.004.024.01.006.008.01.015.01.023Z" style="fill-rule:nonzero" transform="matrix(144 0 0 144 530.47 342.115)"/><path d="M956.77 35.8c-15.36.052-36.64.91-65.85 3.393a7.501 7.501 0 0 1-1.28-14.946c91.75-7.799 110.27.561 110.27.561L997 39.22l1.93-.253c-67.99 18.119-127.22 44.275-178.56 77.665-72.5 47.144-129.27 108.71-172.92 182.309-2.11 3.56-6.72 4.736-10.28 2.625-3.56-2.112-4.73-6.717-2.62-10.277 44.84-75.598 103.18-138.808 177.64-187.232C854.9 76.281 902.93 53.369 956.77 35.8Z"/><path d="M991.28 26.872a7.498 7.498 0 1 1 11.44 9.696c-9.36 11.057-38.25 38.156-73.95 67.616-3.19 2.635-7.92 2.181-10.56-1.011-2.63-3.193-2.18-7.924 1.02-10.559 34.75-28.676 62.93-54.978 72.05-65.742Z"/></svg>