<?xml version="1.0" encoding="UTF-8" standalone="no"?>
<!DOCTYPE svg PUBLIC "-//W3C//DTD SVG 1.1//EN" "http://www.w3.org/Graphics/SVG/1.1/DTD/svg11.dtd">
<svg width="100%" height="100%" viewBox="0 0 653 393" version="1.1" xmlns="http://www.w3.org/2000/svg" xmlns:xlink="http://www.w3.org/1999/xlink" xml:space="preserve" xmlns:serif="http://www.serif.com/" style="fill-rule:evenodd;clip-rule:evenodd;stroke-linecap:round;stroke-linejoin:round;stroke-miterlimit:1.5;">
    <g transform="matrix(1,0,0,1,-313,-327)">
        <g>
            <g>
                <g transform="matrix(0.909091,0,0,0.969163,203.727,26.6233)">
                    <ellipse cx="272" cy="571.5" rx="121" ry="113.5" style="fill:none;stroke:black;stroke-width:21.29px;"/>
                </g>
                <g transform="matrix(0.909091,0,0,0.969163,583.727,26.6233)">
                    <ellipse cx="272" cy="571.5" rx="121" ry="113.5" style="fill:none;stroke:black;stroke-width:21.29px;"/>
                </g>
            </g>
            <g transform="matrix(0.752964,0,0,1,205.287,6)">
                <g>
                    <path d="M831,571.5L643,585L659.328,363L643,585" style="fill:none;stroke:rgb(203,116,125);stroke-width:29.37px;"/>
                    <g transform="matrix(1.91244,0,0,2.2,-705.271,-455)">
                        <path d="M680,370L730,370L680,370Z" style="fill:rgb(203,116,125);stroke:rgb(203,116,125);stroke-width:10.76px;stroke-linecap:butt;"/>
                    </g>
                    <path d="M643,585L379.451,417.114L383.436,400L653.377,432.114" style="fill:none;stroke:rgb(203,116,125);stroke-width:29.37px;stroke-linecap:butt;"/>
                    <g transform="matrix(1.32808,0,0,1,-272.638,-6)">
                        <path d="M697.256,438.114L831,577.5" style="fill:none;stroke:rgb(203,116,125);stroke-width:26px;stroke-linecap:butt;"/>
                    </g>
                    <g transform="matrix(1.18224,0,0,1,-151.444,-6)">
                        <path d="M403,571.5L449.058,423.114" style="fill:none;stroke:rgb(203,116,125);stroke-width:27.46px;stroke-linecap:butt;"/>
                    </g>
                    <g transform="matrix(1.14062,0,0,0.759259,-129.844,119.074)">
                        <path d="M450,370L450,316L334.097,316C324.37,348.426 337.205,392.54 380.919,392.54" style="fill:none;stroke:rgb(203,116,125);stroke-width:32.08px;stroke-linecap:butt;"/>
                    </g>
                </g>
            </g>
        </g>
    </g>
</svg>
