<svg width="2051" height="1322" viewBox="0 0 2051 1322" fill="none" xmlns="http://www.w3.org/2000/svg" opacity="0.8">
<g filter="url(#filter0_f_448_5)">
<path opacity="0.4" d="M1025.5 961C1392.49 961 1690 826.685 1690 661C1690 495.315 1392.49 361 1025.5 361C658.506 361 361 495.315 361 661C361 826.685 658.506 961 1025.5 961Z" fill="url(#paint0_angular_448_5)"/>
</g>
<g filter="url(#filter1_f_448_5)">
<path d="M1394.96 961C1557.91 961 1690 901.364 1690 827.8C1690 754.236 1557.91 694.6 1394.96 694.6C1232.02 694.6 1099.92 754.236 1099.92 827.8C1099.92 901.364 1232.02 961 1394.96 961Z" fill="url(#paint1_angular_448_5)"/>
</g>
<defs>
<filter id="filter0_f_448_5" x="0.399994" y="0.399994" width="2050.2" height="1321.2" filterUnits="userSpaceOnUse" color-interpolation-filters="sRGB">
<feFlood flood-opacity="0" result="BackgroundImageFix"/>
<feBlend mode="normal" in="SourceGraphic" in2="BackgroundImageFix" result="shape"/>
<feGaussianBlur stdDeviation="180.3" result="effect1_foregroundBlur_448_5"/>
</filter>
<filter id="filter1_f_448_5" x="739.324" y="334" width="1311.28" height="987.6" filterUnits="userSpaceOnUse" color-interpolation-filters="sRGB">
<feFlood flood-opacity="0" result="BackgroundImageFix"/>
<feBlend mode="normal" in="SourceGraphic" in2="BackgroundImageFix" result="shape"/>
<feGaussianBlur stdDeviation="180.3" result="effect1_foregroundBlur_448_5"/>
</filter>
<radialGradient id="paint0_angular_448_5" cx="0" cy="0" r="1" gradientUnits="userSpaceOnUse" gradientTransform="translate(1025.5 661) rotate(90) scale(324.6 677.013)">
<stop stop-color="#0000FF" stop-opacity="0.39"/>
<stop offset="1" stop-color="#BABAFF"/>
</radialGradient>
<radialGradient id="paint1_angular_448_5" cx="0" cy="0" r="1" gradientUnits="userSpaceOnUse" gradientTransform="translate(1394.96 827.8) rotate(90) scale(144.122 300.594)">
<stop stop-color="#DB2877"/>
<stop offset="1" stop-color="#DB2877" stop-opacity="0.15"/>
</radialGradient>
</defs>
</svg>
